<svg xmlns="http://www.w3.org/2000/svg" viewBox="0 0 280 280" preserveAspectRatio="xMidYMid meet">
  <!-- connecting lines -->
  <g stroke="rgba(120,170,200,0.12)" stroke-width="0.6" fill="none">
    <line x1="42" y1="55" x2="105" y2="38" />
    <line x1="105" y1="38" x2="175" y2="68" />
    <line x1="175" y1="68" x2="225" y2="42" />
    <line x1="65" y1="125" x2="140" y2="115" />
    <line x1="140" y1="115" x2="210" y2="140" />
    <line x1="55" y1="200" x2="120" y2="218" />
    <line x1="120" y1="218" x2="195" y2="200" />
    <line x1="195" y1="200" x2="240" y2="225" />
  </g>
  <!-- stars -->
  <g fill="rgba(158,200,220,0.4)">
    <circle cx="42" cy="55" r="1.6" />
    <circle cx="105" cy="38" r="2.4" />
    <circle cx="175" cy="68" r="1.8" />
    <circle cx="225" cy="42" r="1.4" />
    <circle cx="65" cy="125" r="2" />
    <circle cx="140" cy="115" r="1.6" />
    <circle cx="210" cy="140" r="2.6" />
    <circle cx="35" cy="170" r="1.2" />
    <circle cx="55" cy="200" r="1.7" />
    <circle cx="120" cy="218" r="2.2" />
    <circle cx="195" cy="200" r="1.5" />
    <circle cx="240" cy="225" r="1.8" />
    <circle cx="155" cy="170" r="1.1" />
    <circle cx="90" cy="80" r="1" />
    <circle cx="250" cy="100" r="1.3" />
  </g>
  <!-- accent glow on a few -->
  <g fill="rgba(212,228,240,0.6)">
    <circle cx="105" cy="38" r="0.9" />
    <circle cx="210" cy="140" r="1" />
    <circle cx="120" cy="218" r="0.9" />
  </g>
</svg>
